<?xml version="1.0" standalone="no"?>
<!DOCTYPE svg PUBLIC "-//W3C//DTD SVG 20010904//EN"
 "http://www.w3.org/TR/2001/REC-SVG-20010904/DTD/svg10.dtd">
<svg version="1.0" xmlns="http://www.w3.org/2000/svg"
 width="1024.000000pt" height="1024.000000pt" viewBox="0 0 1024.000000 1024.000000"
 preserveAspectRatio="xMidYMid meet">
<metadata>
Created by potrace 1.14, written by Peter Selinger 2001-2017
</metadata>
<g transform="translate(0.000000,1024.000000) scale(0.100000,-0.100000)"
fill="#000000" stroke="none">
<path d="M0 5120 l0 -5120 5120 0 5120 0 0 5120 0 5120 -5120 0 -5120 0 0
-5120z m5204 4121 c60 -33 91 -108 76 -178 -32 -141 -223 -172 -299 -49 -28
44 -28 129 -1 173 45 75 144 99 224 54z m-563 -44 c37 -24 79 -97 79 -137 0
-36 -40 -110 -71 -133 -53 -39 -135 -38 -188 0 -31 23 -71 97 -71 133 0 40 42
113 79 137 24 17 49 23 86 23 37 0 62 -6 86 -23z m1195 -3 c40 -19 72 -60 85
-109 31 -111 -90 -229 -200 -197 -80 24 -123 82 -123 164 0 119 127 195 238
142z m-1825 -137 c76 -51 100 -137 60 -216 -49 -96 -180 -114 -257 -37 -56 56
-64 142 -19 210 42 64 152 86 216 43z m2449 -20 c50 -26 90 -90 90 -141 0 -83
-81 -165 -163 -166 -171 -1 -229 231 -77 308 56 28 96 28 150 -1z m-3067 -211
c107 -46 135 -180 53 -262 -86 -86 -229 -52 -266 62 -43 130 88 254 213 200z
m3673 -47 c18 -11 42 -40 55 -65 54 -112 -22 -234 -146 -234 -124 0 -200 122
-146 233 44 91 150 120 237 66z m699 -419 c66 -51 124 -96 129 -101 4 -4 -16
-38 -46 -76 l-55 -68 353 -275 c194 -151 353 -279 353 -285 0 -5 -7 -20 -17
-33 l-18 -23 -351 276 c-194 151 -356 275 -362 275 -5 0 -31 -29 -57 -65 -27
-35 -53 -64 -57 -65 -13 0 -332 250 -332 261 0 5 58 83 129 174 l129 165 41
-33 c22 -18 95 -75 161 -127z m-4886 112 c65 -48 85 -146 43 -213 -27 -44 -88
-79 -138 -79 -94 1 -173 92 -160 185 18 119 160 178 255 107z m-544 -393 c81
-22 134 -105 119 -186 -9 -50 -66 -110 -117 -124 -84 -22 -172 31 -196 118
-21 76 26 160 104 188 49 17 42 17 90 4z m-375 -504 c76 -39 105 -154 57 -226
-24 -37 -97 -79 -137 -79 -77 0 -159 83 -160 161 0 50 38 118 80 140 42 23
120 25 160 4z m-334 -551 c51 -24 77 -68 82 -133 2 -43 -2 -63 -17 -89 -61
-96 -200 -104 -268 -15 -38 50 -43 126 -11 173 51 75 136 101 214 64z m-231
-603 c100 -56 101 -211 3 -271 -46 -28 -125 -27 -169 3 -82 54 -98 165 -35
234 55 60 132 73 201 34z m2327 -400 c102 -26 171 -63 230 -122 87 -88 147
-250 148 -402 l0 -67 -172 2 -173 3 -6 91 c-7 114 -25 150 -94 184 -56 28
-153 33 -217 11 -46 -15 -93 -68 -107 -118 -15 -51 -15 -905 0 -956 14 -50 61
-103 107 -118 64 -22 161 -17 217 11 76 38 89 69 94 218 l3 122 174 0 174 0 0
-97 c-1 -240 -93 -429 -250 -508 -174 -88 -467 -88 -632 2 -64 35 -149 127
-182 197 -60 126 -61 138 -61 651 0 513 1 525 61 651 33 70 118 162 183 197
122 67 346 88 503 48z m-1082 -161 l0 -150 -295 0 -295 0 0 -205 0 -205 225 0
225 0 0 -150 0 -150 -225 0 -225 0 0 -235 0 -235 310 0 310 0 0 -150 0 -150
-485 0 -485 0 0 890 0 890 470 0 470 0 0 -150z m2690 0 l0 -150 -275 0 -275 0
0 -205 0 -205 215 0 215 0 0 -150 0 -150 -215 0 -215 0 0 -385 0 -385 -175 0
-175 0 0 890 0 890 450 0 450 0 0 -150z m907 -425 c83 -313 152 -572 153 -575
1 -3 70 254 154 570 l152 575 242 3 242 2 0 -890 0 -890 -150 0 -150 0 -1 683
0 682 -177 -680 -177 -680 -134 0 -134 0 -176 679 -176 680 -3 -682 -2 -682
-150 0 -150 0 0 890 0 890 242 -2 243 -3 152 -570z m2051 559 c272 -56 412
-231 412 -514 0 -228 -86 -380 -264 -464 -100 -48 -198 -66 -366 -66 l-140 0
0 -360 0 -360 -175 0 -175 0 0 890 0 890 315 0 c250 0 332 -3 393 -16z m-7023
-204 c90 -55 92 -197 3 -263 -14 -11 -49 -22 -76 -25 -95 -9 -162 47 -170 143
-11 135 127 217 243 145z m-26 -648 c89 -65 76 -219 -23 -266 -84 -40 -172 -8
-214 76 -31 63 -24 115 25 169 54 59 147 69 212 21z m56 -631 c16 -9 40 -35
53 -57 59 -102 -19 -234 -138 -234 -116 0 -194 124 -142 226 25 48 40 62 89
80 44 16 94 10 138 -15z m170 -619 c44 -25 77 -96 72 -151 -9 -79 -77 -141
-157 -141 -116 0 -194 124 -142 226 25 48 40 62 89 80 43 16 94 10 138 -14z
m7379 -165 c4 4 4 -1 0 -10 -7 -20 -7 -20 -23 13 -11 22 -10 23 2 8 8 -10 17
-15 21 -11z m-60 -12 c-4 -8 -11 -12 -16 -9 -6 4 -5 10 3 15 19 12 19 11 13
-6z m20 -20 c3 -8 1 -15 -4 -15 -6 0 -10 7 -10 15 0 8 2 15 4 15 2 0 6 -7 10
-15z m144 2 c1 -4 -1 -7 -4 -6 -4 0 -10 -4 -13 -10 -4 -6 -11 -4 -18 7 -9 15
-7 17 11 17 11 -1 22 -4 24 -8z m28 -20 c-8 -49 -17 -68 -29 -60 -6 4 -8 0 -5
-9 11 -29 -49 -66 -102 -63 -76 4 -94 12 -84 38 3 9 10 14 15 11 5 -3 9 0 9 7
0 7 7 4 15 -7 8 -10 15 -17 16 -14 8 37 4 51 -13 47 -10 -3 -15 -1 -12 5 3 5
17 7 29 4 14 -4 25 -1 28 7 2 6 4 0 4 -15 1 -29 -12 -38 -20 -15 -3 6 -4 2 -4
-10 1 -12 5 -19 11 -16 5 3 6 1 2 -6 -4 -6 -11 -9 -16 -6 -4 3 -10 -2 -13 -9
-4 -10 0 -14 13 -13 10 1 18 4 18 7 -3 14 15 39 25 33 5 -3 7 -1 3 5 -3 6 -2
13 3 16 17 11 22 -26 5 -39 -14 -9 -14 -14 -4 -20 8 -5 11 -4 6 3 -3 6 3 13
14 17 11 3 19 12 17 18 -1 7 4 11 12 9 12 -3 12 -1 0 14 -12 15 -10 20 19 44
17 14 32 32 32 38 0 7 3 12 6 12 3 0 3 -15 0 -33z m-106 4 c0 -4 -11 -13 -25
-19 -15 -7 -25 -8 -25 -2 0 6 5 10 11 10 5 0 8 4 5 9 -4 5 0 11 6 14 15 5 28
-1 28 -12z m37 -26 c0 -8 -5 -15 -10 -15 -5 0 -4 -6 2 -14 8 -10 9 -16 1 -21
-5 -3 -10 0 -10 8 0 8 -7 17 -15 21 -8 3 -15 11 -15 18 0 9 3 9 10 -2 9 -13
12 -13 21 3 12 21 16 21 16 2z m-157 -44 c0 -5 -9 -7 -20 -4 -11 3 -20 7 -20
9 0 2 9 4 20 4 11 0 20 -4 20 -9z m-7019 -304 c49 -32 83 -105 74 -157 -13
-77 -79 -130 -162 -130 -120 0 -191 128 -130 234 42 74 148 100 218 53z m6882
-61 c151 -63 106 -286 -57 -286 -56 0 -97 19 -125 58 -88 124 41 287 182 228z
m-6534 -466 c59 -30 84 -78 79 -151 -4 -51 -9 -64 -38 -94 -41 -42 -87 -59
-141 -50 -127 22 -173 182 -77 272 49 46 116 55 177 23z m6171 -62 c56 -29 81
-64 87 -120 10 -90 -48 -158 -141 -165 -64 -5 -112 19 -144 73 -28 47 -26 121
5 162 22 30 96 72 128 72 11 0 41 -10 65 -22z m-5730 -407 c72 -38 103 -137
66 -209 -76 -145 -296 -94 -296 68 0 121 125 197 230 141z m5299 -59 c45 -33
71 -81 71 -131 0 -88 -64 -151 -154 -151 -148 0 -212 184 -95 273 19 14 43 27
54 30 35 10 97 -1 124 -21z m-4780 -339 c96 -72 95 -195 -2 -267 -21 -15 -43
-21 -82 -21 -60 0 -95 20 -132 75 -52 76 -13 192 77 229 36 15 108 7 139 -16z
m4272 -49 c97 -61 83 -216 -24 -264 -53 -24 -81 -25 -133 -1 -125 57 -111 252
21 290 42 13 93 3 136 -25z m-3711 -256 c75 -52 98 -125 61 -200 -29 -59 -63
-81 -131 -86 -45 -3 -61 0 -89 20 -57 38 -76 73 -76 133 0 88 67 155 155 155
32 0 57 -7 80 -22z m3118 -22 c89 -47 116 -164 55 -237 -71 -84 -189 -78 -257
14 -28 38 -29 125 0 164 50 67 137 93 202 59z m-2508 -189 c98 -65 97 -199 -1
-265 -44 -31 -129 -28 -176 6 -90 64 -79 217 19 265 49 24 118 22 158 -6z
m1910 -19 c52 -36 72 -70 73 -124 1 -92 -56 -154 -147 -162 -56 -4 -101 18
-138 69 -48 64 -27 168 41 215 48 32 125 33 171 2z m-1280 -87 c49 -26 83 -93
77 -150 -3 -24 -14 -55 -24 -70 -71 -96 -195 -95 -267 2 -15 20 -20 43 -20 82
0 61 19 95 74 133 41 28 111 29 160 3z m649 -8 c45 -34 71 -82 71 -130 0 -146
-168 -213 -270 -108 -29 30 -34 43 -37 92 -5 75 18 119 78 151 52 28 116 26
158 -5z"/>
<path d="M7930 5480 l0 -253 128 5 c145 7 196 22 241 74 37 41 51 90 51 174 0
82 -14 131 -48 171 -45 54 -99 71 -244 77 l-128 5 0 -253z"/>
<path d="M8940 3650 c0 -5 5 -10 11 -10 5 0 7 5 4 10 -3 6 -8 10 -11 10 -2 0
-4 -4 -4 -10z"/>
<path d="M8780 3570 c-9 -6 -10 -10 -3 -10 6 0 15 5 18 10 8 12 4 12 -15 0z"/>
</g>
</svg>
